<?xml version="1.0" standalone="no"?>
<!DOCTYPE svg PUBLIC "-//W3C//DTD SVG 20010904//EN"
 "http://www.w3.org/TR/2001/REC-SVG-20010904/DTD/svg10.dtd">
<svg version="1.0" xmlns="http://www.w3.org/2000/svg"
 width="1500.000000pt" height="1500.000000pt" viewBox="0 0 1500.000000 1500.000000"
 preserveAspectRatio="xMidYMid meet">
<metadata>
Created by potrace 1.14, written by Peter Selinger 2001-2017
</metadata>
<g transform="translate(0.000000,1500.000000) scale(0.100000,-0.100000)"
fill="#000000" stroke="none">
<path d="M7220 13169 c-719 -53 -1417 -244 -2039 -559 -850 -430 -1567 -1063
-2078 -1835 -222 -335 -427 -736 -573 -1119 -110 -291 -213 -682 -266 -1004
-40 -249 -74 -654 -74 -882 0 -261 43 -735 86 -952 5 -24 -1 -30 -56 -62 -34
-20 -64 -36 -67 -36 -3 0 -2 51 3 113 5 61 9 173 9 247 0 116 -4 150 -29 245
-16 61 -32 114 -36 118 -12 14 -377 -21 -490 -47 -270 -61 -486 -182 -690
-386 -123 -122 -208 -244 -255 -365 -47 -119 -58 -183 -58 -320 1 -109 4 -128
33 -210 69 -194 178 -296 364 -342 l68 -16 -6 -71 c-21 -237 -28 -314 -46
-521 -11 -126 -27 -306 -36 -399 -8 -92 -13 -170 -11 -173 3 -2 95 7 205 21
111 14 228 26 261 26 108 0 189 -36 486 -216 256 -154 362 -206 496 -239 146
-36 258 -35 361 4 88 33 158 81 219 149 50 56 123 201 140 278 7 30 16 54 20
54 4 0 23 -21 40 -47 165 -243 441 -559 689 -790 903 -843 2014 -1344 3230
-1455 219 -20 793 -17 995 5 569 62 1009 169 1495 362 170 67 537 245 698 339
769 445 1463 1126 1914 1876 202 335 393 747 503 1078 l27 83 96 -7 c150 -10
298 26 422 101 l60 36 57 -20 c167 -60 373 -38 518 54 114 72 214 226 255 391
21 85 52 454 40 467 -4 5 -44 3 -89 -4 -44 -7 -83 -10 -85 -8 -5 5 31 397 38
415 2 6 35 14 73 18 37 4 74 10 80 14 15 10 30 194 39 496 l7 209 -65 -7 c-36
-4 -68 -4 -70 1 -3 4 1 67 8 138 6 72 15 175 19 229 l8 99 -84 -7 c-107 -9
-663 -150 -761 -194 -108 -47 -162 -132 -181 -287 l-12 -99 -34 -8 c-18 -5
-47 -8 -65 -6 l-31 3 -7 80 c-64 719 -245 1356 -566 1991 -342 676 -799 1246
-1397 1740 -966 798 -2184 1230 -3450 1223 -132 -1 -292 -6 -355 -10z m675
-389 c578 -40 1035 -141 1550 -343 945 -372 1786 -1059 2348 -1918 438 -669
704 -1408 792 -2199 20 -178 19 -226 -1 -234 -9 -3 -45 -6 -80 -6 -133 0 -260
-28 -366 -81 -32 -16 -62 -29 -67 -29 -5 0 -12 44 -16 98 -27 403 -107 804
-234 1173 -251 727 -711 1408 -1286 1904 -706 608 -1491 954 -2430 1072 -200
25 -808 25 -1010 0 -653 -81 -1192 -255 -1704 -551 -510 -294 -996 -726 -1370
-1216 -359 -470 -604 -982 -751 -1570 -39 -155 -44 -181 -80 -405 -73 -456
-73 -985 -1 -1415 11 -63 16 -119 12 -123 -10 -10 -507 -71 -524 -64 -8 3 -18
35 -25 79 -93 600 -81 1251 33 1813 232 1144 860 2178 1770 2911 589 475 1270
808 2005 983 452 107 979 151 1435 121z m20 -741 c1509 -113 2830 -1001 3511
-2361 263 -526 412 -1106 450 -1753 l6 -110 -42 -53 c-23 -28 -43 -52 -45 -52
-3 0 -25 22 -50 49 -25 27 -63 60 -83 75 l-38 26 -12 182 c-21 315 -78 632
-163 909 -22 70 -39 136 -39 147 0 12 -4 23 -9 26 -19 12 -81 187 -81 231 0
71 -19 144 -61 231 -30 64 -53 95 -107 145 -44 42 -89 97 -127 159 -285 465
-696 898 -1140 1203 -168 115 -283 183 -480 283 l-180 92 0 44 c1 23 4 76 9
116 l8 73 -208 -4 c-184 -3 -216 -6 -264 -25 l-56 -21 -159 39 c-316 78 -618
114 -960 113 -364 0 -726 -46 -1020 -128 -249 -70 -467 -149 -651 -235 l-101
-47 -144 -5 c-132 -5 -152 -8 -247 -41 -56 -19 -136 -56 -176 -81 -139 -86
-252 -236 -292 -386 -17 -64 -21 -68 -169 -215 -357 -354 -617 -715 -826
-1150 -63 -129 -74 -146 -148 -218 -44 -43 -101 -107 -126 -142 -64 -91 -132
-237 -151 -325 -28 -130 -5 -298 53 -399 l26 -44 -18 -141 c-22 -185 -31 -570
-16 -756 6 -80 21 -212 33 -295 12 -82 22 -163 22 -180 l1 -30 -118 -14 c-64
-8 -120 -11 -123 -8 -14 14 -40 183 -64 412 -12 112 -15 564 -5 683 58 680
242 1296 550 1837 343 604 878 1152 1500 1536 569 352 1226 563 1895 608 174
12 478 12 635 0z m-72 -374 c203 -7 595 -65 582 -85 -6 -10 -50 -23 -243 -74
l-132 -36 -53 34 c-147 94 -309 99 -469 14 -132 -70 -228 -232 -228 -386 l0
-53 -37 8 c-55 12 -211 8 -263 -7 -25 -6 -69 -23 -97 -37 -49 -23 -57 -24
-106 -13 -61 14 -169 9 -303 -13 -50 -9 -122 -19 -160 -22 l-70 -7 -13 43
c-31 102 -117 220 -197 269 -19 12 -34 26 -34 30 0 11 63 40 195 90 305 115
528 172 860 221 138 20 457 38 565 33 30 -2 121 -6 203 -9z m1250 -102 c3 -5
-1 -62 -8 -128 -7 -66 -15 -142 -16 -170 l-3 -50 66 -7 c173 -20 278 -103 327
-262 25 -80 27 -200 7 -369 -7 -59 -10 -110 -7 -112 2 -3 19 -5 36 -5 18 0 37
-6 42 -12 22 -30 57 -145 56 -189 -1 -94 -66 -228 -136 -282 -81 -62 -196 -94
-291 -82 -54 7 -149 45 -178 71 -25 23 -38 9 -38 -41 0 -56 -7 -59 -140 -74
-166 -19 -401 -51 -445 -61 -72 -17 -199 -12 -257 10 l-53 20 -90 -45 c-133
-66 -244 -77 -371 -35 -28 10 -38 8 -71 -13 -69 -43 -125 -59 -219 -65 -108
-6 -177 11 -253 63 -56 37 -56 38 -66 -37 -3 -25 -11 -50 -18 -55 -7 -5 -169
-28 -362 -52 -192 -23 -419 -51 -503 -62 -184 -23 -192 -23 -192 -4 0 8 -2 15
-4 15 -2 0 -38 -17 -80 -39 -101 -51 -188 -73 -326 -80 l-115 -6 -3 -217 c-1
-120 0 -218 4 -218 3 0 20 11 36 26 17 14 54 37 82 51 184 93 378 96 502 7 26
-18 51 -31 56 -28 4 3 8 27 8 54 0 27 5 52 10 55 11 7 335 49 835 109 574 70
631 77 719 93 110 19 198 13 272 -21 30 -14 58 -25 62 -26 4 0 9 16 12 37 4
31 10 38 36 45 35 9 38 17 50 170 4 47 10 91 14 98 4 6 132 45 285 86 333 88
345 91 345 73 0 -8 -7 -84 -14 -169 -8 -85 -12 -158 -10 -162 3 -4 25 -5 49
-1 41 5 45 4 45 -15 0 -11 4 -23 8 -26 4 -2 42 13 84 34 89 45 132 54 323 70
77 7 203 20 280 29 l140 17 -3 29 c-11 117 -6 192 14 236 28 60 82 119 147
161 50 32 55 33 152 33 92 0 104 -2 153 -30 108 -59 166 -152 179 -282 5 -49
10 -63 22 -63 33 0 398 49 451 61 157 34 316 -30 398 -159 63 -99 79 -218 58
-422 -22 -200 -27 -180 47 -177 l62 2 8 -85 c11 -122 3 -211 -27 -275 -33 -73
-115 -158 -185 -192 -51 -26 -66 -28 -171 -28 -124 0 -157 10 -230 71 -37 32
-42 27 -61 -49 -6 -26 -18 -51 -28 -56 -9 -5 -99 -18 -201 -30 -257 -31 -304
-38 -394 -57 -66 -14 -90 -15 -147 -5 -38 6 -84 19 -104 28 -34 16 -36 16 -63
-4 -73 -54 -191 -93 -282 -93 -25 0 -70 7 -100 16 -30 8 -64 17 -76 20 -13 4
-39 -6 -70 -24 -27 -17 -78 -40 -114 -52 -83 -28 -195 -24 -290 9 l-65 24 -61
-37 c-134 -80 -271 -102 -399 -63 l-61 19 -64 -35 c-36 -20 -92 -43 -125 -53
-113 -32 -283 0 -360 67 -18 16 -35 29 -38 29 -3 0 -9 -29 -12 -65 -4 -36 -10
-67 -14 -69 -4 -3 -119 -18 -256 -36 -138 -17 -281 -38 -318 -47 -87 -20 -216
-14 -270 13 -31 15 -41 16 -55 6 -9 -7 -51 -29 -92 -50 -73 -36 -78 -37 -185
-37 -100 0 -115 3 -166 28 -31 15 -77 50 -103 77 l-46 49 -78 -78 c-122 -125
-234 -171 -409 -171 -78 0 -118 5 -160 20 -32 11 -61 20 -65 20 -4 0 -8 -15
-8 -34 0 -30 -3 -34 -32 -40 -18 -3 -292 -37 -608 -76 -316 -39 -658 -82 -760
-94 -105 -13 -187 -19 -191 -14 -8 12 15 194 39 308 12 52 43 189 70 303 31
133 45 210 39 214 -6 4 -37 19 -69 35 -108 55 -167 156 -176 303 -7 128 31
244 126 388 49 75 151 179 225 229 123 84 307 148 427 148 58 0 237 -36 257
-53 8 -5 13 -35 14 -71 1 -33 4 -72 8 -86 8 -27 13 -14 57 150 9 36 20 68 23
72 3 4 62 14 131 23 69 9 140 18 158 22 l34 6 -45 46 c-85 89 -122 166 -137
287 -26 207 73 414 238 498 29 15 52 29 52 32 0 3 -17 26 -38 52 -82 100 -115
191 -116 317 0 99 22 167 81 258 98 148 269 245 468 267 289 31 492 -106 514
-343 l6 -72 60 3 c33 2 137 15 230 29 236 36 308 39 378 15 l57 -19 36 25
c143 97 359 91 483 -13 35 -31 36 -30 50 61 6 40 6 77 -1 105 -24 105 12 225
90 302 67 66 129 92 222 92 91 0 154 -26 217 -87 l42 -41 83 26 c46 14 229 67
408 117 179 50 334 95 345 100 24 11 242 13 248 3z m496 -435 c467 -279 910
-695 1218 -1145 40 -58 73 -110 73 -115 0 -4 -24 -8 -54 -8 -29 0 -91 -6 -137
-14 -46 -8 -120 -19 -164 -25 -44 -7 -94 -14 -112 -16 -30 -5 -32 -4 -48 47
-40 120 -122 215 -236 272 -126 63 -252 68 -376 15 -25 -11 -47 -18 -49 -16
-2 2 1 19 6 38 6 18 10 66 10 105 0 58 -8 91 -45 194 -25 69 -51 131 -58 138
-11 10 -13 43 -9 140 3 91 0 148 -12 200 -14 69 -62 179 -92 213 -15 16 -18
29 -8 29 3 0 45 -23 93 -52z m-4619 -568 c9 -30 26 -75 38 -99 12 -25 22 -50
22 -55 0 -6 -20 -30 -44 -53 -171 -166 -226 -425 -142 -675 13 -40 23 -74 22
-76 -2 -1 -40 -7 -85 -14 -73 -10 -84 -14 -92 -35 -6 -17 -14 -23 -27 -19 -56
18 -172 36 -225 36 -67 0 -212 -29 -272 -54 -69 -29 -69 -33 28 144 92 168
252 406 380 566 116 144 354 397 370 391 5 -1 17 -27 27 -57z m4505 -797 c-4
-38 -8 -69 -9 -70 -5 -6 -336 -43 -381 -43 -28 0 -88 -9 -133 -21 -45 -11 -92
-19 -104 -17 -20 3 -22 8 -19 48 1 25 7 50 12 56 5 6 53 16 106 23 54 7 105
19 113 26 12 11 30 12 85 4 87 -12 200 3 269 35 28 14 55 25 59 25 5 1 5 -29
2 -66z m-1798 -173 c63 -8 96 -7 163 5 47 8 88 15 93 15 9 0 9 -46 1 -89 -8
-40 -47 -51 -148 -44 -47 4 -108 0 -167 -10 -52 -9 -445 -60 -874 -113 -576
-71 -782 -100 -790 -111 -9 -11 -19 -12 -65 -2 -71 15 -215 6 -303 -20 -74
-22 -82 -18 -75 31 3 21 10 24 78 31 41 4 120 23 175 42 90 30 149 40 595 95
727 90 713 87 730 110 13 17 21 18 70 8 87 -16 243 -4 324 25 37 14 73 30 79
36 6 6 17 9 24 7 6 -3 47 -10 90 -16z m6342 -1037 c0 -27 -8 -130 -18 -231 -9
-102 -13 -186 -8 -189 5 -3 37 -2 73 2 66 7 68 6 65 -35 0 -8 -5 -102 -11
-209 -6 -107 -12 -196 -14 -199 -2 -2 -37 -8 -78 -13 -40 -6 -76 -14 -80 -17
-9 -10 -68 -676 -60 -684 4 -3 43 0 87 7 44 7 84 10 88 5 11 -9 -10 -208 -30
-290 -36 -152 -134 -283 -249 -336 -117 -55 -281 -51 -401 9 -45 22 -68 28
-78 22 -182 -129 -282 -163 -445 -151 -70 4 -97 12 -158 41 l-72 36 -38 -29
c-54 -43 -159 -98 -221 -116 -72 -21 -221 -21 -292 0 -30 9 -77 27 -106 41
l-52 24 -55 -45 c-62 -50 -159 -100 -226 -115 -67 -16 -218 -13 -285 4 -119
31 -223 116 -273 223 -13 30 -28 50 -32 45 -4 -4 -15 -80 -24 -168 -9 -88 -18
-161 -20 -162 -5 -5 -1344 -173 -1381 -173 -15 0 -16 11 -10 118 l7 117 -43
-50 c-66 -75 -98 -103 -171 -152 -128 -83 -274 -120 -433 -109 -161 11 -254
47 -352 139 -77 72 -145 200 -169 317 -13 66 -18 256 -11 420 l2 35 -66 6
c-46 4 -80 13 -112 32 l-46 27 -5 -32 c-3 -18 -7 -64 -10 -103 -18 -239 -68
-792 -77 -857 -6 -43 -17 -82 -24 -88 -7 -6 -165 -29 -351 -51 -187 -22 -375
-45 -420 -51 -44 -6 -120 -9 -170 -6 -75 3 -99 9 -153 36 -35 17 -68 29 -72
26 -5 -3 -26 0 -46 7 -21 7 -74 15 -118 18 l-80 7 35 19 c54 31 142 118 175
174 17 28 35 51 40 51 6 0 21 -20 34 -45 54 -101 146 -144 273 -126 40 6 90
15 110 21 46 13 149 81 182 121 14 16 27 29 30 29 3 0 6 -29 6 -65 0 -77 -21
-73 220 -42 l165 22 6 40 c4 22 24 249 44 505 21 256 42 482 47 503 5 20 22
52 38 71 33 37 139 89 163 80 9 -3 24 -27 33 -52 26 -69 42 -90 79 -102 66
-22 162 24 199 95 15 29 21 58 21 106 0 55 -5 73 -30 114 -42 68 -101 98 -176
92 -74 -6 -129 -36 -221 -118 -42 -38 -79 -69 -83 -69 -4 0 -4 34 0 75 4 41 3
75 -2 75 -38 1 -370 -44 -379 -51 -6 -5 -14 -51 -18 -102 -10 -139 -54 -638
-67 -757 -13 -121 -38 -197 -82 -246 -41 -47 -77 -64 -136 -64 -56 0 -85 21
-94 67 -7 35 13 290 78 1007 31 335 52 613 47 618 -4 4 -48 -3 -97 -17 -50
-13 -132 -35 -184 -49 -51 -13 -97 -28 -102 -33 -5 -5 -20 -137 -35 -293 -14
-157 -28 -287 -30 -290 -3 -2 -11 0 -18 5 -68 50 -67 50 -181 49 -128 0 -179
-17 -281 -90 -117 -83 -211 -220 -273 -396 -48 -139 -63 -227 -70 -429 -6
-184 -6 -186 -36 -234 -38 -60 -70 -85 -123 -92 -84 -11 -113 14 -125 110 -4
28 4 145 19 285 32 290 31 469 -3 543 -52 117 -133 165 -273 163 -116 -2 -182
-28 -264 -105 -35 -32 -66 -59 -70 -59 -3 0 -3 28 1 61 l6 61 -29 -6 c-16 -3
-103 -15 -194 -26 -90 -12 -166 -23 -169 -26 -2 -2 -15 -125 -28 -272 -60
-703 -64 -730 -129 -823 -50 -72 -166 -102 -213 -54 -24 24 -19 254 13 605 43
472 45 495 38 502 -10 10 -365 -33 -378 -46 -10 -10 -33 -233 -70 -686 -19
-234 -27 -281 -63 -355 -40 -81 -78 -116 -133 -122 -61 -7 -86 16 -98 87 -9
56 -7 79 54 765 13 149 21 273 18 277 -9 9 -370 -36 -382 -48 -4 -5 -22 -169
-39 -364 -56 -632 -54 -621 -103 -713 -40 -74 -85 -107 -149 -107 -50 0 -79
21 -98 73 -13 35 0 238 59 857 10 113 15 209 10 213 -7 8 -328 -26 -372 -39
-13 -4 -18 -16 -18 -45 0 -42 -9 -49 -31 -22 -79 94 -353 56 -501 -71 -139
-119 -254 -352 -294 -595 -25 -153 -16 -358 20 -464 44 -131 101 -201 196
-246 47 -22 69 -26 150 -26 86 0 101 3 163 32 79 38 169 119 212 192 17 28 33
51 37 51 4 0 21 -27 39 -60 68 -128 187 -166 353 -113 100 32 176 88 242 178
27 36 51 65 56 65 4 0 16 -17 27 -39 82 -160 308 -188 486 -60 46 33 108 106
142 167 10 19 22 34 26 33 4 0 22 -29 40 -63 57 -110 152 -153 285 -130 89 15
178 60 249 126 l62 57 3 -63 3 -63 45 3 c68 5 332 40 336 45 3 2 20 186 39
408 20 222 42 448 50 502 22 147 81 247 155 267 124 33 153 -78 114 -440 -10
-85 -18 -220 -18 -300 -1 -139 0 -148 27 -205 33 -70 67 -109 122 -138 34 -19
56 -22 155 -22 105 0 120 2 177 29 70 32 167 125 202 194 25 49 35 52 55 14 8
-15 36 -48 63 -73 53 -50 111 -74 208 -87 l60 -8 -35 -20 c-19 -10 -59 -42
-90 -70 l-55 -51 -40 13 c-22 7 -59 23 -81 35 l-42 22 -46 -40 c-58 -51 -147
-98 -221 -118 -69 -18 -232 -20 -290 -4 -123 34 -228 117 -279 221 -16 32 -32
56 -36 53 -4 -2 -10 -46 -14 -97 -8 -107 -24 -208 -35 -227 -9 -13 -132 -32
-475 -71 -100 -12 -217 -30 -261 -40 -172 -41 -248 -36 -369 24 l-70 34 -44
-39 c-111 -97 -310 -150 -454 -120 -32 7 -85 26 -119 43 -40 20 -66 28 -74 22
-108 -83 -207 -129 -320 -148 l-70 -12 -6 -140 c-7 -155 -16 -201 -59 -313
-102 -262 -328 -344 -638 -230 -79 29 -139 61 -352 189 -406 244 -463 261
-752 223 -70 -9 -130 -14 -133 -12 -4 5 10 173 70 835 14 150 25 281 25 293 0
20 -5 21 -80 21 -194 0 -325 103 -378 296 -27 101 -28 193 -3 299 34 140 89
243 195 367 234 274 564 433 941 454 l120 7 18 -66 c11 -42 17 -102 17 -167 0
-84 -34 -503 -55 -682 -3 -27 -2 -48 2 -48 4 0 21 21 37 46 43 68 131 159 202
210 125 90 260 134 409 134 44 0 222 18 395 40 391 49 864 107 1665 205 697
85 736 90 803 106 73 17 208 15 277 -5 63 -19 143 -67 187 -113 36 -37 92
-146 108 -211 8 -29 16 -52 20 -52 3 0 23 35 44 78 139 282 388 461 643 462
28 0 54 4 57 9 4 5 16 112 27 238 15 159 25 231 35 239 7 6 62 23 121 39 153
39 425 112 511 136 40 11 78 17 83 13 12 -7 9 -79 -17 -392 -9 -101 -13 -186
-11 -189 3 -2 115 9 249 26 133 17 286 35 338 41 52 6 128 15 168 21 123 18
230 -13 305 -86 25 -25 50 -45 57 -45 7 0 45 31 86 69 82 76 205 145 314 177
93 26 295 26 366 0 81 -30 155 -85 208 -156 27 -36 52 -65 55 -65 3 0 11 60
17 133 7 74 16 138 21 143 5 5 67 16 138 25 311 38 575 74 635 88 120 28 220
18 322 -34 l57 -29 46 35 c25 20 81 52 123 72 73 34 84 36 198 40 94 3 135 0
180 -13 145 -42 241 -144 289 -308 9 -31 20 -57 25 -57 4 0 13 14 19 31 21 61
107 192 174 264 139 151 288 221 506 235 69 5 182 16 251 24 379 45 477 58
496 66 19 7 22 21 32 135 14 142 33 200 78 232 35 24 73 36 309 99 99 26 216
57 260 69 117 33 115 34 114 -22z m-2580 -138 c22 -141 36 -269 47 -409 l7
-89 -42 7 c-188 30 -342 4 -484 -81 l-58 -35 -72 23 c-97 32 -243 33 -372 2
-49 -12 -119 -24 -155 -28 -208 -21 -563 -68 -612 -82 -58 -16 -68 -27 -68
-80 0 -13 -2 -23 -4 -23 -2 0 -29 11 -61 25 -85 38 -169 55 -273 55 -112 0
-211 -19 -323 -63 -80 -32 -213 -111 -239 -142 -18 -21 -26 -19 -105 20 -90
45 -184 59 -303 45 -48 -5 -178 -21 -290 -35 -242 -30 -250 -30 -281 -5 -23
20 -23 22 -17 138 4 64 9 140 12 169 l6 52 87 -6 c105 -6 207 13 292 56 l60
30 72 -16 c119 -25 272 0 391 65 l54 29 68 -18 c130 -34 262 -21 395 39 64 29
67 29 120 16 111 -29 273 -8 389 51 49 25 55 26 104 14 71 -18 208 -16 291 4
39 9 187 30 330 47 310 37 304 36 312 58 9 24 24 32 43 22 30 -16 164 -27 230
-19 166 20 317 124 390 268 12 24 25 39 30 35 4 -5 17 -67 29 -139z m-7679
-167 c-1 -35 -17 -99 -29 -111 -10 -10 -9 6 5 101 6 36 24 44 24 10z m2438
-529 c89 -34 248 -38 344 -9 40 12 88 31 106 42 24 15 42 18 67 14 30 -6 35
-11 35 -34 -1 -46 -28 -344 -33 -348 -2 -2 -30 -9 -63 -15 -186 -34 -372 -152
-516 -326 -15 -18 -29 -33 -32 -33 -2 0 -30 27 -61 59 -141 148 -335 193 -615
143 -98 -18 -502 -70 -1110 -142 -85 -10 -237 -28 -338 -41 -118 -14 -186 -19
-192 -13 -14 14 -63 335 -53 345 4 4 211 33 458 64 248 30 556 68 685 85 129
16 316 39 415 50 99 12 185 26 192 32 8 6 31 8 57 4 62 -10 194 10 280 41 71
26 152 72 215 123 l33 28 35 -24 c19 -13 60 -33 91 -45z m744 -835 c21 -21 28
-37 28 -66 0 -64 -60 -691 -69 -725 -14 -49 -71 -122 -117 -149 -47 -28 -118
-32 -151 -9 -39 27 -65 118 -70 245 -13 289 65 573 188 684 27 24 60 47 72 49
43 10 90 -2 119 -29z m-4194 -494 c56 -34 57 -43 33 -317 -46 -517 -47 -521
-125 -599 -68 -68 -122 -87 -175 -58 -54 29 -79 83 -92 199 -18 169 11 388 75
559 43 113 98 184 168 216 54 25 75 25 116 0z m5608 -285 c79 -254 273 -418
537 -454 43 -6 103 -11 134 -11 39 0 53 -3 50 -12 -3 -9 -25 -12 -75 -10 -192
9 -351 -98 -403 -270 -49 -161 14 -340 152 -428 38 -25 48 -37 43 -49 -4 -9
-9 -56 -12 -106 -3 -74 0 -98 17 -137 25 -59 90 -131 150 -166 42 -25 55 -27
151 -27 97 0 109 2 153 28 114 67 172 163 172 287 0 65 -5 85 -33 142 -19 39
-50 81 -72 101 l-39 33 26 55 c38 79 43 185 13 279 l-23 71 31 32 c57 59 64
122 21 196 -11 18 -19 35 -17 36 10 7 122 55 130 55 5 0 8 -10 6 -22 -3 -21 1
-23 49 -23 39 0 57 -5 75 -22 16 -16 37 -23 62 -23 36 0 50 10 94 64 7 9 25
16 40 16 15 0 187 20 382 44 729 91 810 100 816 94 13 -13 -153 -275 -279
-443 -355 -469 -841 -876 -1356 -1134 -115 -58 -377 -171 -396 -171 -7 0 -16
15 -19 33 -8 41 -51 85 -92 93 -41 8 -89 -17 -114 -59 -24 -39 -25 -56 -3
-102 9 -19 15 -37 12 -39 -17 -17 -357 -96 -539 -125 -218 -35 -630 -63 -630
-44 0 6 12 31 26 57 105 188 -55 425 -271 403 -99 -10 -179 -70 -223 -165 -20
-44 -23 -65 -20 -120 2 -37 11 -82 21 -101 10 -19 14 -38 10 -42 -11 -9 -313
43 -457 80 -191 49 -556 174 -556 190 0 4 23 14 51 24 60 22 132 84 162 142
29 55 31 191 3 253 -17 38 -18 44 -4 60 26 28 38 88 26 125 -41 122 -194 128
-244 10 -13 -31 -18 -33 -62 -33 -92 -1 -189 -67 -240 -165 -32 -61 -36 -166
-9 -229 10 -22 15 -41 13 -44 -7 -6 -214 115 -345 201 -96 63 -261 184 -261
191 0 1 26 0 58 -2 48 -3 63 0 92 20 52 35 80 83 80 137 l0 45 38 -36 c62 -61
131 -74 201 -38 77 39 109 101 96 187 -9 63 -74 129 -137 138 -61 9 -118 -8
-155 -47 -38 -40 -53 -76 -53 -131 -1 -42 -1 -42 -19 -20 -48 57 -125 77 -197
51 -29 -10 -35 -9 -64 15 -72 61 -153 44 -212 -43 l-16 -25 -68 67 c-38 37
-66 70 -63 73 3 3 98 16 210 30 266 32 419 54 429 60 4 3 13 29 20 57 6 29 13
58 15 65 3 8 27 0 72 -23 91 -46 167 -63 290 -64 163 0 277 33 405 118 35 23
42 24 76 13 l37 -13 0 -132 0 -132 38 -76 c44 -89 121 -167 212 -213 57 -28
67 -30 180 -30 115 0 123 1 186 32 101 50 161 110 211 211 42 84 43 87 42 186
0 80 -5 113 -22 156 -12 30 -22 59 -22 63 0 4 30 7 67 5 l68 -3 7 -44 c20
-117 153 -149 227 -55 15 19 21 41 21 79 0 52 1 53 33 58 81 15 478 59 483 54
3 -3 -2 -19 -10 -36 -44 -84 14 -188 111 -199 40 -4 54 -12 88 -47 83 -89 205
-81 278 17 24 33 33 114 18 161 -26 78 -124 129 -209 107 -41 -10 -46 -9 -78
15 -23 18 -33 32 -30 43 26 84 56 313 71 552 8 118 15 141 28 90 5 -19 20 -71
33 -115z m3709 -54 c47 -12 112 -21 158 -21 42 0 77 -4 77 -8 0 -5 -22 -62
-49 -128 -320 -787 -832 -1482 -1481 -2010 -1103 -898 -2500 -1283 -3910
-1078 -532 77 -1098 262 -1580 516 -666 352 -1246 845 -1685 1433 -113 152
-175 240 -175 248 0 3 11 12 24 20 22 15 28 14 73 -3 27 -10 86 -24 132 -31
99 -15 213 -2 320 36 38 14 73 25 78 25 5 0 51 -53 103 -117 124 -155 473
-504 631 -630 373 -300 740 -515 1151 -676 173 -68 152 -70 193 19 19 42 35
82 35 88 0 6 -24 20 -52 30 -138 47 -466 203 -642 303 -397 227 -795 555
-1090 898 l-86 100 127 7 c71 3 140 9 155 13 24 6 40 -6 175 -141 550 -551
1223 -924 1968 -1093 304 -68 562 -96 895 -95 641 2 1220 139 1785 421 734
368 1338 950 1738 1678 37 66 70 126 74 133 6 10 19 8 59 -7 29 -11 82 -26
118 -32 36 -7 66 -17 66 -22 0 -15 -131 -262 -195 -367 -371 -612 -852 -1088
-1479 -1465 -127 -76 -493 -265 -514 -265 -6 0 -14 -5 -17 -10 -7 -11 42 -167
54 -175 22 -13 399 173 614 303 721 433 1340 1112 1704 1868 35 72 69 136 76
141 6 5 39 20 72 33 33 13 83 38 110 56 56 37 63 38 190 5z m-2386 -290 c7
-13 6 -23 -3 -36 -23 -32 -67 2 -52 40 8 21 43 19 55 -4z m-388 -120 c36 -37
40 -94 8 -135 -26 -34 -39 -33 -75 5 -16 17 -46 40 -66 52 -46 25 -47 39 -9
78 23 23 38 29 71 29 33 0 48 -6 71 -29z m-2371 -81 c160 -81 252 -251 222
-411 -16 -88 -48 -146 -116 -215 -84 -83 -147 -108 -276 -108 -83 0 -102 3
-150 27 -108 52 -172 124 -210 238 -54 158 12 346 155 444 72 50 131 66 230
61 66 -3 92 -9 145 -36z m2179 -27 c166 -79 236 -284 154 -446 -14 -28 -16
-28 -66 -20 -136 21 -238 -7 -317 -90 -35 -35 -42 -39 -62 -30 -50 24 -108 86
-140 151 -29 58 -33 76 -32 142 0 59 6 88 26 132 76 166 273 239 437 161z
m-884 -35 c30 -14 31 -22 5 -73 -11 -22 -20 -50 -20 -62 0 -30 -22 -39 -61
-23 -62 26 -74 109 -22 150 29 23 60 25 98 8z m-751 -49 c52 -41 21 -119 -46
-119 -39 0 -51 7 -67 37 -17 33 -14 51 14 78 30 30 64 32 99 4z m992 -12 c85
-77 34 -207 -81 -207 -114 0 -164 130 -80 208 28 26 43 32 80 32 37 0 52 -6
81 -33z m-2820 -326 c76 -34 92 -131 32 -191 -36 -37 -83 -46 -131 -27 -94 40
-99 170 -7 219 43 22 55 22 106 -1z m-547 -101 c27 -14 30 -31 16 -86 -15 -63
-48 -83 -94 -59 -54 27 -67 82 -30 129 22 28 73 36 108 16z m4086 0 c20 -32
-98 -91 -194 -98 -87 -6 -100 8 -48 53 20 18 52 37 69 43 44 13 165 15 173 2z
m-3865 -35 c33 -17 60 -61 60 -97 0 -13 -9 -37 -19 -54 -41 -67 -135 -70 -178
-5 -28 42 -29 76 -3 119 31 51 85 65 140 37z m3994 -46 c51 -57 66 -98 66
-184 0 -141 -104 -251 -246 -263 -111 -9 -205 40 -262 136 -24 42 -27 57 -27
134 0 54 5 92 12 99 8 8 48 12 110 13 84 1 106 5 153 27 30 15 72 40 94 58 21
17 42 31 46 31 5 0 29 -23 54 -51z m-3030 -120 c29 -34 32 -55 14 -94 -14 -32
-19 -31 -70 5 -22 17 -47 30 -53 30 -7 0 -18 6 -24 14 -9 11 -6 21 15 45 36
43 82 43 118 0z m-1150 -14 c3 -8 2 -15 -3 -15 -5 0 -14 7 -21 15 -10 12 -10
15 3 15 8 0 17 -7 21 -15z m991 -86 c89 -22 175 -132 175 -224 0 -55 -39 -133
-88 -177 -123 -111 -319 -53 -373 109 -14 43 -7 129 15 171 37 71 125 129 199
131 16 1 48 -4 72 -10z m1331 -434 c88 -36 146 -152 124 -245 -26 -107 -105
-170 -215 -170 -108 0 -192 63 -215 162 -43 178 133 323 306 253z m1422 -87
c7 -7 12 -27 12 -45 0 -26 -6 -36 -24 -44 -36 -17 -74 -4 -82 27 -11 42 10 74
49 74 18 0 38 -5 45 -12z"/>
<path d="M8755 11357 c-60 -16 -113 -35 -117 -41 -4 -6 -9 -38 -13 -71 -14
-151 -37 -410 -55 -631 -24 -289 -32 -337 -66 -386 -65 -94 -173 -103 -187
-16 -6 39 42 593 54 625 6 15 20 24 46 28 60 10 63 12 63 50 l0 35 -50 0 -50
0 0 43 c0 23 5 87 10 142 6 54 6 103 2 107 -10 10 -241 -50 -259 -66 -9 -9
-33 -183 -33 -243 0 -8 -14 -19 -30 -25 -49 -17 -55 -83 -8 -90 22 -3 23 -6
20 -73 -7 -164 -42 -493 -56 -527 -43 -103 -145 -159 -196 -108 -27 27 -26 62
9 445 15 171 25 314 21 318 -8 9 -251 -20 -262 -31 -4 -4 -18 -146 -33 -317
-14 -170 -32 -334 -40 -362 -21 -72 -79 -133 -127 -133 -23 0 -42 8 -56 23
-28 30 -28 80 -2 322 22 201 16 278 -24 337 -88 131 -292 110 -401 -39 -16
-23 -35 -42 -42 -42 -6 -1 -20 15 -32 34 -35 60 -73 77 -168 72 -74 -3 -87 -7
-137 -40 -31 -21 -56 -42 -56 -47 0 -6 -6 -10 -14 -10 -9 0 -16 12 -18 33 -2
17 -8 31 -14 30 -7 -1 -63 -7 -125 -13 -63 -7 -118 -15 -123 -20 -14 -14 -97
-963 -84 -975 7 -8 251 24 260 33 9 9 22 124 48 432 24 284 37 325 112 374 55
36 93 -11 90 -114 -1 -32 -10 -154 -21 -271 -35 -377 -35 -388 -19 -394 13 -5
248 22 255 29 2 1 14 130 28 287 29 329 39 398 65 450 44 85 119 104 153 39
20 -38 20 -46 -4 -375 -14 -204 -8 -238 55 -301 57 -58 125 -73 216 -50 79 20
129 54 176 118 20 26 37 48 39 48 2 0 12 -16 24 -35 74 -127 306 -100 422 48
23 29 45 53 50 55 4 2 15 -10 23 -26 66 -127 258 -130 395 -7 21 19 41 35 45
35 3 0 6 -18 6 -40 0 -33 3 -40 20 -40 20 0 243 30 247 33 1 1 15 151 32 332
17 182 36 347 42 368 6 21 26 56 46 78 28 31 43 39 69 39 73 0 80 -53 55 -389
-16 -218 -10 -266 45 -329 56 -66 141 -80 230 -38 28 13 61 38 74 56 25 35 53
117 44 131 -3 5 -21 7 -40 3 -74 -14 -104 16 -104 104 0 26 9 133 19 237 21
203 18 253 -18 322 -26 51 -58 79 -106 92 -88 24 -178 2 -249 -60 -26 -23 -49
-39 -52 -37 -2 3 5 101 16 219 11 117 20 219 20 226 0 19 -32 15 -155 -20z"/>
<path d="M7677 11259 c-74 -39 -99 -156 -49 -227 43 -59 127 -78 192 -43 108
57 108 216 -1 271 -48 25 -93 25 -142 -1z"/>
<path d="M5635 11094 c-165 -25 -305 -115 -362 -233 -23 -46 -28 -69 -27 -131
0 -123 23 -159 225 -351 149 -143 174 -171 205 -235 42 -84 54 -176 34 -248
-47 -171 -279 -214 -357 -67 -57 108 -9 213 117 258 54 19 61 33 34 72 -59 84
-240 62 -327 -39 -57 -67 -80 -139 -74 -232 14 -208 143 -312 387 -311 234 1
458 150 514 342 32 108 15 285 -36 385 -31 60 -111 140 -233 231 -184 138
-225 193 -225 301 0 72 25 115 84 143 88 43 177 22 206 -49 18 -43 8 -134 -18
-170 -39 -53 -26 -70 53 -70 83 0 139 72 138 180 0 101 -49 176 -135 209 -31
12 -160 21 -203 15z"/>
<path d="M9850 9851 c-50 -26 -83 -92 -77 -154 5 -60 30 -95 88 -125 111 -58
246 40 226 165 -18 106 -141 166 -237 114z"/>
<path d="M8371 9554 c-68 -18 -128 -37 -132 -41 -6 -7 -29 -208 -29 -256 0
-10 -12 -20 -32 -25 -30 -8 -33 -12 -33 -47 0 -32 4 -40 20 -43 11 -2 23 -7
28 -11 9 -9 -39 -528 -54 -586 -14 -53 -55 -128 -78 -142 -38 -24 -85 -26
-111 -5 -24 19 -25 25 -23 119 2 54 10 171 19 261 20 208 9 279 -54 346 -38
40 -81 56 -154 56 -74 0 -146 -30 -193 -78 -37 -39 -45 -40 -45 -3 0 17 -5 33
-11 37 -12 7 -223 -14 -254 -26 -20 -7 -23 -29 -52 -352 -26 -290 -34 -352
-53 -396 -36 -83 -112 -123 -166 -87 l-27 17 6 137 c4 75 16 230 27 346 26
268 26 305 2 305 -44 0 -247 -31 -255 -39 -8 -8 -36 -279 -56 -547 -12 -154
-25 -198 -77 -251 -43 -45 -68 -52 -100 -29 -17 13 -19 27 -18 143 0 70 6 180
12 243 22 225 35 410 29 416 -5 6 -267 -22 -273 -29 -1 -1 -7 -56 -14 -122 -6
-66 -13 -128 -16 -137 -6 -20 -136 -73 -158 -65 -9 4 -16 15 -16 26 0 42 -41
148 -71 185 -43 51 -99 76 -175 76 -267 1 -463 -235 -493 -596 -22 -255 39
-398 187 -444 149 -46 290 -5 404 119 94 101 143 235 155 418 l6 101 70 31
c38 17 72 29 76 27 4 -3 4 -40 0 -83 -17 -174 -21 -328 -10 -369 16 -59 65
-127 106 -147 23 -11 60 -17 103 -17 106 1 181 44 243 141 18 27 37 49 43 49
6 0 19 -18 29 -40 31 -66 67 -85 167 -85 96 0 143 19 215 84 l40 36 3 -43 c4
-49 -5 -48 153 -27 71 9 118 20 124 29 6 8 16 87 23 176 28 350 49 513 72 567
39 92 96 123 146 80 28 -25 29 -28 29 -119 0 -51 -6 -178 -14 -283 -13 -175
-13 -194 3 -241 30 -90 108 -144 209 -144 102 0 193 48 249 131 30 44 58 63
58 40 0 -20 56 -75 95 -92 108 -49 277 11 369 130 21 28 40 51 42 51 2 0 27
-24 56 -54 57 -58 98 -76 178 -76 96 0 182 45 250 132 24 29 47 53 52 53 5 0
19 -18 31 -40 75 -134 306 -103 423 57 20 26 39 48 42 48 4 0 18 -18 32 -41
39 -64 81 -84 170 -83 88 1 163 30 227 88 22 20 43 36 47 36 3 0 6 -18 6 -40
0 -32 4 -40 18 -40 48 0 257 33 263 41 3 5 11 85 18 177 28 369 47 517 74 576
17 37 37 62 59 76 42 25 51 25 84 -3 38 -33 41 -87 19 -359 -18 -217 -18 -230
-1 -283 19 -62 54 -108 100 -132 42 -22 142 -21 185 2 64 33 121 116 121 175
l0 31 -49 -7 c-44 -6 -52 -4 -75 19 -32 32 -32 45 -5 315 27 267 18 336 -52
408 -77 79 -257 66 -344 -24 -16 -17 -33 -32 -37 -32 -5 0 -8 16 -8 35 0 30
-3 35 -23 35 -33 0 -247 -29 -256 -34 -4 -3 -13 -78 -20 -168 -19 -260 -42
-490 -52 -529 -12 -48 -61 -114 -98 -134 -45 -23 -97 -20 -115 7 -21 30 -21
50 14 442 16 187 27 343 24 348 -3 4 -22 6 -42 3 -20 -2 -81 -10 -135 -16 -86
-10 -98 -14 -102 -33 -2 -11 -16 -156 -30 -321 -15 -165 -33 -327 -41 -360
-19 -75 -55 -131 -99 -152 -41 -20 -74 -9 -101 32 -19 29 -21 -13 32 599 8 99
11 182 7 186 -4 4 -66 0 -137 -9 -121 -15 -130 -18 -139 -41 -6 -14 -12 -26
-13 -28 -1 -2 -18 7 -38 19 -32 18 -48 21 -115 17 -189 -11 -331 -152 -407
-403 -22 -75 -27 -115 -32 -243 l-4 -153 -42 -45 c-35 -39 -48 -47 -88 -51
-80 -9 -82 -4 -74 177 7 185 40 537 50 548 4 4 31 12 59 17 51 10 52 11 55 48
l3 39 -53 -4 -53 -3 0 60 c0 33 4 104 8 158 7 78 6 97 -5 96 -7 -1 -69 -16
-137 -35z m849 -351 c24 -30 23 -42 -10 -379 -19 -196 -27 -222 -85 -272 -66
-59 -124 -54 -159 13 -19 36 -21 55 -20 190 2 130 5 162 28 238 49 165 106
237 187 237 29 0 43 -6 59 -27z m-3397 -391 c37 -40 39 -71 11 -129 -24 -49
-26 -58 -15 -93 6 -22 21 -44 31 -50 17 -9 20 -21 20 -76 0 -133 -55 -293
-120 -348 -40 -33 -100 -36 -128 -6 -67 73 -52 400 27 575 35 77 52 99 96 126
38 24 58 24 78 1z"/>
<path d="M5057 9321 c-82 -11 -121 -21 -127 -31 -4 -8 -23 -71 -43 -140 -38
-136 -167 -595 -218 -782 -18 -65 -36 -118 -40 -118 -3 0 -9 35 -12 78 -3 42
-21 268 -39 501 -32 422 -32 423 -56 432 -48 18 -142 10 -235 -21 -118 -40
-196 -88 -277 -171 -156 -161 -220 -355 -157 -479 28 -57 91 -92 157 -88 34 2
44 7 41 18 -2 8 -10 37 -17 65 -30 107 -11 263 43 355 46 78 169 187 189 167
3 -2 -29 -150 -71 -328 -74 -316 -92 -389 -195 -825 -28 -116 -50 -221 -50
-233 0 -23 2 -23 68 -16 37 4 72 11 78 16 7 5 15 26 19 47 4 20 42 181 85 357
43 176 84 348 91 383 8 35 18 64 24 65 10 2 29 -214 55 -621 7 -106 16 -195
20 -197 14 -8 255 27 266 38 6 7 34 98 63 202 63 229 125 452 155 558 12 43
26 77 30 75 9 -3 9 -44 0 -499 -4 -176 -3 -308 2 -311 14 -8 262 26 272 37 5
6 14 298 21 650 6 352 12 683 14 735 2 112 16 105 -156 81z"/>
<path d="M13760 8364 c-25 -8 -99 -29 -165 -45 -66 -17 -129 -37 -141 -44 -18
-12 -22 -30 -33 -157 -20 -227 -20 -227 -50 -234 -62 -14 -61 -12 -61 -70 l0
-54 37 0 36 0 -7 -127 c-10 -201 -53 -645 -64 -673 -6 -14 -18 -50 -26 -81
-39 -140 -147 -220 -236 -174 -57 30 -60 86 -25 480 40 442 55 648 50 653 -6
6 -376 -36 -383 -43 -2 -2 -6 -22 -9 -44 -3 -23 -8 -41 -11 -41 -3 0 -21 15
-40 33 l-33 32 -117 0 c-103 -1 -124 -4 -179 -27 -156 -66 -264 -181 -351
-375 -77 -171 -114 -379 -105 -588 4 -86 2 -92 -29 -150 -38 -68 -90 -105
-150 -105 -50 0 -66 8 -82 39 -26 51 -27 103 -5 308 12 115 22 282 23 373 1
161 0 166 -27 226 -49 106 -109 147 -228 160 -152 15 -296 -62 -392 -208 -33
-52 -44 -58 -54 -30 -16 43 -68 104 -111 129 -43 25 -56 28 -142 28 -86 -1
-102 -4 -166 -34 -45 -20 -90 -51 -120 -82 -26 -27 -52 -49 -57 -49 -5 0 -5
25 -2 55 l7 55 -29 0 c-17 0 -68 -5 -114 -10 -235 -29 -248 -32 -253 -48 -3
-10 -10 -80 -16 -157 -17 -220 -10 -202 -94 -241 -40 -18 -93 -35 -117 -36
-43 -3 -43 -3 -52 37 -35 158 -79 244 -155 302 -54 41 -98 53 -192 53 -350 0
-614 -302 -676 -772 -36 -274 7 -480 124 -595 69 -68 132 -87 287 -88 125 0
133 1 205 33 41 17 101 52 133 77 161 127 271 378 284 650 3 66 9 127 14 136
8 15 127 71 182 84 26 7 26 7 21 -42 -20 -181 -71 -829 -66 -835 8 -7 350 30
372 42 12 6 23 98 57 470 45 497 56 560 113 638 35 48 64 69 108 78 26 5 36 1
60 -23 45 -44 47 -91 18 -408 -14 -154 -32 -372 -42 -485 -9 -113 -18 -208
-20 -211 -2 -4 2 -11 9 -16 8 -7 58 -4 147 8 74 10 151 19 171 19 19 0 43 6
52 13 18 13 20 33 67 592 33 395 48 462 124 540 67 70 131 72 170 5 30 -50 31
-171 7 -459 -26 -303 -26 -335 0 -416 25 -75 73 -136 133 -168 36 -19 57 -22
161 -22 113 0 123 2 174 29 69 36 147 110 186 175 17 28 35 51 40 51 6 0 28
-24 51 -53 24 -32 61 -64 95 -82 51 -28 60 -30 169 -30 106 0 120 2 172 28 72
35 155 110 203 182 20 30 40 55 44 55 4 0 18 -22 31 -49 47 -100 114 -141 234
-141 130 0 266 70 351 180 64 84 76 96 81 84 25 -59 75 -122 118 -149 45 -27
57 -30 135 -29 149 1 214 54 272 222 10 30 19 59 19 64 0 4 -29 8 -63 8 -50 0
-68 4 -81 19 -33 37 -32 69 14 586 5 61 15 175 21 255 6 80 15 150 20 156 5 7
35 15 67 18 93 11 92 10 92 73 l0 55 -75 -7 -75 -7 0 29 c0 15 7 100 15 188
18 197 19 225 3 224 -7 -1 -33 -7 -58 -15z m-1143 -764 c19 -11 35 -31 39 -47
4 -15 2 -95 -5 -178 -7 -82 -16 -204 -22 -270 -20 -262 -33 -320 -86 -398 -55
-80 -171 -114 -222 -65 -58 53 -85 197 -70 374 11 132 16 163 46 273 65 247
204 382 320 311z m-3260 -394 c31 -39 49 -105 35 -124 -45 -63 -52 -79 -52
-132 0 -61 25 -114 59 -125 18 -5 21 -14 21 -65 0 -200 -77 -430 -174 -519
-20 -19 -40 -26 -84 -29 -110 -8 -140 49 -149 278 -6 177 10 299 63 461 59
184 134 279 219 279 34 0 48 -5 62 -24z"/>
<path d="M1706 7114 c-210 -41 -399 -141 -559 -293 -131 -125 -200 -236 -236
-379 -26 -100 -26 -123 0 -208 39 -127 103 -177 231 -178 36 -1 69 1 72 4 3 3
-7 37 -21 75 -54 148 -39 347 39 505 47 95 209 252 234 227 4 -3 -119 -1398
-156 -1767 -5 -58 -10 -118 -10 -135 l0 -30 123 0 c197 -1 281 -34 648 -253
268 -160 320 -185 438 -213 180 -43 274 15 343 211 25 70 37 240 18 240 -7 0
-43 -12 -79 -27 -56 -23 -85 -27 -192 -31 -157 -5 -204 6 -504 118 -240 91
-328 120 -361 120 -12 0 -24 6 -27 13 -4 11 28 390 88 1032 57 620 86 959 81
972 -7 17 -78 16 -170 -3z"/>
<path d="M10146 5646 c-54 -32 -86 -88 -86 -151 0 -30 6 -60 16 -74 16 -22 15
-24 -16 -54 -49 -48 -64 -85 -65 -157 0 -53 5 -73 28 -112 65 -111 221 -139
324 -58 85 67 103 211 37 298 l-25 33 20 42 c30 62 27 123 -6 175 -51 78 -151
104 -227 58z m154 -55 c14 -10 31 -29 38 -42 17 -32 8 -97 -16 -122 -18 -17
-24 -18 -57 -7 -21 7 -56 10 -81 6 -39 -5 -46 -3 -60 19 -21 31 -14 97 13 127
43 49 112 57 163 19z m-14 -237 c68 -33 102 -125 74 -208 -22 -68 -116 -116
-189 -96 -142 38 -172 225 -49 300 41 25 117 26 164 4z"/>
<path d="M10272 5178 c-31 -60 -27 -87 13 -72 20 8 58 81 51 100 -11 28 -41
14 -64 -28z"/>
<path d="M9695 5470 c-61 -25 -91 -109 -61 -169 61 -117 236 -77 236 54 0 90
-91 150 -175 115z m100 -65 c40 -39 29 -97 -22 -116 -57 -21 -112 34 -91 91
19 54 73 66 113 25z"/>
<path d="M8054 5191 c-17 -10 -45 -37 -63 -59 -25 -32 -44 -44 -89 -57 -261
-75 -424 -358 -357 -620 24 -94 62 -162 133 -236 77 -82 167 -131 283 -155 69
-14 86 -14 165 0 255 44 427 232 441 481 10 171 -60 331 -188 433 -49 39 -60
54 -65 85 -8 48 -40 95 -83 124 -44 30 -132 32 -177 4z m150 -51 c32 -19 64
-65 54 -76 -3 -3 -28 1 -56 9 -27 9 -75 18 -106 22 -31 4 -56 11 -56 16 0 17
65 49 99 49 18 0 48 -9 65 -20z m-21 -117 c32 -9 61 -22 64 -30 8 -19 -33 -60
-73 -73 -64 -21 -154 35 -154 96 0 22 4 24 52 24 28 0 78 -7 111 -17z m-212
-25 c13 -51 49 -96 93 -117 76 -37 146 -22 204 43 40 46 53 43 120 -28 111
-118 156 -280 117 -429 -43 -164 -154 -283 -315 -337 -54 -18 -82 -21 -161
-18 -90 3 -103 7 -182 46 -144 71 -232 191 -258 350 -34 208 90 424 290 503
60 24 83 21 92 -13z"/>
<path d="M8310 4854 c0 -8 14 -32 31 -54 19 -23 33 -54 36 -79 5 -36 9 -42 27
-39 61 9 -11 188 -75 188 -11 0 -19 -7 -19 -16z"/>
<path d="M9620 5179 c-54 -12 -90 -59 -90 -118 0 -61 33 -105 91 -122 33 -10
45 -9 79 6 52 23 74 58 74 118 0 40 -5 53 -30 77 -36 36 -77 49 -124 39z m78
-65 c16 -11 22 -25 22 -54 0 -29 -6 -43 -22 -54 -50 -35 -118 -5 -118 52 0 59
67 92 118 56z"/>
<path d="M7317 5109 c-20 -11 -49 -38 -65 -61 -23 -35 -27 -52 -27 -113 -1
-63 -4 -76 -27 -103 -37 -44 -44 -84 -21 -129 52 -106 183 -108 229 -3 14 32
25 42 54 50 56 15 101 50 128 100 48 91 10 215 -79 261 -51 26 -141 25 -192
-2z m173 -52 c84 -55 91 -150 19 -219 -50 -47 -84 -50 -120 -9 -14 16 -44 34
-67 41 -47 12 -59 37 -48 92 20 101 134 151 216 95z m-141 -263 c12 -15 21
-34 21 -44 0 -10 -9 -29 -21 -44 -16 -20 -29 -26 -59 -26 -45 0 -70 26 -70 72
0 65 89 93 129 42z"/>
<path d="M6635 4691 c-48 -29 -67 -57 -72 -104 -10 -87 27 -144 108 -168 52
-16 119 9 156 58 53 69 26 179 -54 217 -45 21 -101 20 -138 -3z m115 -46 c89
-46 55 -175 -46 -175 -35 0 -47 5 -68 31 -41 48 -29 115 25 145 32 18 54 17
89 -1z"/>
<path d="M6448 4371 c-28 -25 -33 -36 -33 -74 0 -105 117 -142 182 -58 7 9 13
36 13 59 0 36 -5 49 -31 73 -42 39 -87 39 -131 0z m93 -31 c22 -12 26 -59 7
-78 -19 -19 -55 -14 -72 9 -16 23 -12 47 12 67 19 15 28 15 53 2z"/>
<path d="M9051 3826 c-13 -14 -48 -37 -77 -53 -63 -33 -73 -59 -20 -49 l34 7
6 -48 c3 -27 13 -133 21 -238 9 -104 18 -195 20 -202 4 -13 77 4 94 22 5 6 6
46 1 100 -5 50 -14 155 -20 235 -14 191 -21 250 -29 250 -4 0 -18 -11 -30 -24z"/>
<path d="M6475 3785 c-95 -34 -109 -105 -48 -239 50 -108 53 -179 9 -225 -56
-58 -146 -29 -146 46 0 38 39 73 81 73 35 0 38 22 7 44 -28 20 -97 20 -122 1
-86 -65 -70 -192 28 -236 137 -60 262 -16 301 106 21 69 12 113 -45 222 -22
41 -40 88 -40 104 0 35 39 79 70 79 24 0 70 -42 70 -64 0 -8 -11 -28 -25 -44
-28 -33 -24 -42 16 -42 30 0 69 40 69 71 0 82 -127 141 -225 104z"/>
<path d="M8685 3751 c-55 -25 -95 -70 -115 -131 l-18 -52 -27 50 c-48 89 -141
106 -230 44 -99 -69 -125 -228 -50 -308 28 -29 39 -34 79 -34 39 0 53 5 77 29
16 16 29 36 29 45 0 26 -20 29 -44 7 -30 -28 -50 -26 -75 5 -44 56 -18 200 41
230 27 14 32 14 53 0 45 -30 50 -51 49 -211 0 -121 -3 -157 -18 -188 -37 -84
-114 -116 -138 -59 -17 38 -16 37 -38 17 -27 -24 -25 -51 5 -80 49 -50 150
-24 218 55 41 48 64 118 73 218 4 39 10 72 14 72 4 0 13 -12 20 -26 17 -31 58
-54 97 -54 40 0 89 33 97 65 10 40 -9 54 -34 27 -27 -29 -65 -28 -84 1 -36 54
-28 170 15 216 27 28 73 27 94 -1 35 -50 56 -197 44 -305 -10 -90 -37 -146
-80 -163 -30 -13 -33 -12 -58 19 -27 32 -27 32 -45 12 -43 -47 12 -108 88 -97
152 23 229 212 181 440 -17 82 -40 124 -85 153 -40 28 -82 29 -135 4z"/>
<path d="M6771 3684 c-25 -32 -26 -43 -5 -72 16 -24 53 -29 85 -12 28 15 26
74 -3 94 -32 23 -54 20 -77 -10z"/>
<path d="M8115 3633 c-16 -9 -55 -24 -85 -33 -61 -20 -78 -40 -31 -40 16 0 33
-4 36 -10 3 -5 -8 -106 -25 -224 -40 -282 -40 -266 14 -266 52 0 61 10 70 75
3 28 20 149 36 270 17 121 30 226 30 233 0 16 -8 15 -45 -5z"/>
<path d="M6701 3524 c-53 -116 -104 -245 -108 -274 -4 -26 1 -42 15 -60 18
-23 27 -25 90 -24 55 1 69 -1 65 -12 -3 -8 4 -15 19 -18 12 -3 35 -7 49 -10
16 -3 31 -1 36 7 6 6 30 65 54 131 56 152 100 201 129 146 9 -17 4 -41 -24
-121 -43 -120 -44 -142 -10 -174 33 -30 92 -33 135 -8 20 12 34 15 43 8 59
-44 70 -48 121 -48 41 0 66 7 108 31 l55 31 29 -36 c25 -32 35 -36 83 -40 33
-2 65 1 79 9 27 15 68 65 59 73 -3 3 -27 0 -53 -7 -43 -12 -48 -11 -61 7 -8
10 -14 31 -14 47 0 23 6 29 38 37 88 25 142 84 142 157 0 55 -22 74 -86 74
-107 0 -182 -87 -210 -242 -4 -28 -15 -43 -39 -58 -80 -49 -145 -31 -145 40 0
88 73 234 114 228 16 -2 21 -10 22 -36 0 -48 21 -63 45 -33 26 31 24 57 -6 86
-29 30 -98 34 -151 9 -61 -29 -117 -124 -141 -239 -7 -36 -11 -40 -41 -43 -22
-2 -34 2 -38 12 -3 8 10 62 30 119 20 57 36 114 36 126 0 12 -12 34 -26 48
-24 24 -31 25 -84 20 -38 -4 -60 -3 -62 4 -2 6 -23 14 -46 19 -53 9 -54 8
-107 -140 -40 -110 -72 -153 -109 -148 -38 5 -31 48 29 179 30 67 52 126 47
131 -4 4 -28 11 -53 14 -42 6 -46 4 -58 -22z m1024 -162 c-4 -19 -13 -45 -21
-57 -17 -26 -80 -62 -90 -52 -14 13 20 100 52 134 29 31 36 34 50 22 11 -9 14
-22 9 -47z"/>
<path d="M6907 5483 c-16 -15 -5 -33 36 -56 57 -34 87 -88 87 -161 0 -59 18
-82 43 -57 17 17 12 110 -7 156 -33 78 -129 149 -159 118z"/>
<path d="M9056 5465 c-3 -8 2 -21 11 -27 54 -43 94 -90 99 -117 11 -55 54 -68
54 -15 0 85 -140 221 -164 159z"/>
<path d="M6090 4663 c1 -10 19 -30 41 -46 35 -24 56 -56 73 -109 7 -22 35 -23
43 -2 19 51 -71 174 -128 174 -21 0 -29 -5 -29 -17z"/>
</g>
</svg>
